# Blender 3.4.0
# www.blender.org
mtllib syringe.mtl
o Cube
v 0.000000 6.929919 1.000000
v 0.000000 0.000000 1.000000
v -1.000000 0.000000 0.000000
v -1.000000 6.929919 0.000000
v -0.400000 0.000000 1.000000
v -1.000000 0.000000 0.400000
v -1.000000 6.929919 0.400000
v -0.400000 6.929919 1.000000
v -1.000000 7.395268 0.400000
v -0.465250 7.395268 1.170510
v -1.170510 7.395268 0.465250
v 0.000000 7.395268 1.170510
v -1.170510 7.395268 0.000000
v -0.465250 6.929919 1.170510
v -1.170510 6.929919 0.465250
v -1.170510 6.929919 0.000000
v 0.000000 6.929919 1.170510
v 0.000000 7.395268 1.000000
v -0.400000 7.395268 1.000000
v -1.000000 7.395268 0.000000
v -0.253602 7.824286 0.000000
v -0.253570 7.824286 0.101428
v -0.101428 7.824286 0.253570
v 0.000000 7.824286 0.253602
v -0.746398 7.614570 0.000000
v -0.253602 7.762669 0.000000
v -0.253570 7.762669 0.101428
v -0.746430 7.614570 0.298572
v -0.101428 7.762669 0.253570
v -0.298572 7.614570 0.746430
v 0.000000 7.762669 0.253602
v 0.000000 7.614570 0.746398
v -0.101428 8.299682 0.253570
v -0.253602 8.299682 0.000000
v -0.253570 8.299682 0.101428
v 0.000000 8.299682 0.253602
v 0.000000 8.009636 0.300503
v 0.000000 7.824286 0.300503
v -0.300503 7.824286 0.119383
v -0.300503 7.824286 0.000000
v -0.300503 8.009636 0.119383
v -0.300503 8.009636 0.000000
v -0.119383 7.824286 0.296898
v -0.119383 8.009636 0.296898
v -0.050714 8.839328 0.126785
v -0.126801 8.839328 0.000000
v -0.126785 8.839328 0.050714
v 0.000000 8.839328 0.126801
v -0.025357 8.839328 0.063392
v 0.000000 -2.419062 0.500000
v -0.063392 8.839328 0.025357
v 0.000000 8.839328 0.063400
v -0.063400 8.839328 0.000000
v -0.025357 13.865159 0.063392
v 0.000000 13.865159 0.000000
v -0.500000 -2.419062 0.000000
v -0.063392 13.865159 0.025357
v 0.000000 13.865159 0.063400
v -0.063400 13.865159 0.000000
v 0.000000 -2.000000 1.000000
v -1.000000 -2.000000 0.000000
v -1.000000 -2.000000 0.400000
v -0.400000 -2.000000 1.000000
v -0.447595 0.000000 1.114903
v -0.447595 -2.000000 1.114903
v -1.121327 0.000000 0.447594
v -1.126736 0.000000 0.000000
v 0.000000 0.000000 1.124371
v -1.121327 -2.000000 0.447594
v -1.130794 -2.000000 0.000000
v 0.000000 -2.000000 1.124371
v 0.000000 -2.265473 1.000000
v -1.000000 -2.265473 0.000000
v -1.000000 -2.265473 0.400000
v -0.400000 -2.265473 1.000000
v -0.090101 -3.142380 0.090101
v 0.000000 -2.419062 1.000000
v -1.000000 -2.419062 0.000000
v -1.000000 -2.419062 0.400000
v -0.400000 -2.419062 1.000000
v -1.203940 -2.265473 0.000000
v -1.203940 -2.419062 0.000000
v -1.203940 -2.265473 0.478043
v -0.478043 -2.265473 1.203940
v 0.000000 -2.265473 1.203940
v -1.203940 -2.419062 0.478043
v -0.478043 -2.419062 1.203940
v 0.000000 -2.419062 1.203940
v -0.447595 -0.666667 1.114903
v -0.447595 -1.333333 1.114903
v 0.000000 -1.333333 1.124371
v 0.000000 -0.666667 1.124371
v -1.124370 -0.666667 0.000000
v -1.124371 -1.333333 0.000000
v -1.121327 -1.333333 0.447594
v -1.121327 -0.666667 0.447594
v -1.128427 -0.666667 0.223797
v -1.126061 -1.333333 0.223797
v -1.308079 -1.333333 0.000000
v -1.308080 -0.666667 0.000000
v -1.308080 -0.666667 0.227683
v -1.308080 -1.333333 0.227683
v -3.229554 -0.666668 0.000000
v -3.229550 -0.666668 0.227678
v -3.229550 -1.333335 0.227678
v -3.229553 -1.333335 0.000000
v -1.948571 -1.973818 0.227681
v -2.589060 -1.973820 0.227680
v -2.589061 -1.973822 0.000000
v -1.948570 -1.973822 0.000000
v -1.948571 -0.026177 0.227681
v -2.589063 -0.026177 0.227680
v -2.589063 -0.026177 0.000000
v -1.948571 -0.026177 0.000000
v -3.016054 -1.333335 0.227679
v -3.016054 -0.666668 0.227679
v -2.589062 -0.239673 0.227680
v -1.948571 -0.239673 0.227681
v -1.521576 -0.666667 0.227683
v -1.521576 -1.333333 0.227683
v -2.589060 -1.760324 0.227680
v -1.948571 -1.760324 0.227681
v -3.016054 -1.333335 0.000000
v -3.016054 -0.666668 0.000000
v -2.589062 -0.239673 0.000000
v -1.948571 -0.239673 0.000000
v -1.521576 -0.666667 0.000000
v -1.521576 -1.333333 0.000000
v -2.589060 -1.760324 0.000000
v -1.948571 -1.760324 0.000000
v 0.000000 -3.142380 0.090101
v -0.090101 -3.142382 0.000000
v 0.000000 -3.330020 0.000000
v -0.090101 -4.815790 0.090101
v 0.000000 -4.815790 0.090101
v -0.090101 -4.815793 0.000000
v 0.000000 -4.815793 0.000000
v -0.791650 -3.888980 0.000000
v -0.791650 -4.069190 0.000000
v -0.791650 -4.069190 0.090101
v -0.791650 -3.888980 0.090101
v -0.090101 -3.330020 0.000000
v -0.604010 -3.888980 0.000000
v -0.090101 -4.651200 0.000000
v -0.604010 -4.069190 0.000000
v 0.000000 -4.651200 0.000000
v -0.604010 -4.069190 0.090101
v -0.090101 -4.651200 0.090101
v -0.604010 -3.888980 0.090101
v -0.090101 -3.330020 0.090101
v 0.000000 -3.330020 0.090101
v 0.000000 -4.651200 0.090101
v 1.000000 0.000000 0.000000
v 1.000000 6.929919 0.000000
v 0.400000 0.000000 1.000000
v 1.000000 0.000000 0.400000
v 1.000000 6.929919 0.400000
v 0.400000 6.929919 1.000000
v 1.000000 7.395268 0.400000
v 0.465250 7.395268 1.170510
v 1.170510 7.395268 0.465250
v 1.170510 7.395268 0.000000
v 0.465250 6.929919 1.170510
v 1.170510 6.929919 0.465250
v 1.170510 6.929919 0.000000
v 0.400000 7.395268 1.000000
v 1.000000 7.395268 0.000000
v 0.253602 7.824286 0.000000
v 0.253570 7.824286 0.101428
v 0.101428 7.824286 0.253570
v 0.746398 7.614570 0.000000
v 0.253602 7.762669 0.000000
v 0.253570 7.762669 0.101428
v 0.746430 7.614570 0.298572
v 0.101428 7.762669 0.253570
v 0.298572 7.614570 0.746430
v 0.101428 8.299682 0.253570
v 0.253602 8.299682 0.000000
v 0.253570 8.299682 0.101428
v 0.300503 7.824286 0.119383
v 0.300503 7.824286 0.000000
v 0.300503 8.009636 0.119383
v 0.300503 8.009636 0.000000
v 0.119383 7.824286 0.296898
v 0.119383 8.009636 0.296898
v 0.050714 8.839328 0.126785
v 0.126801 8.839328 0.000000
v 0.126785 8.839328 0.050714
v 0.025357 8.839328 0.063392
v 0.063392 8.839328 0.025357
v 0.063400 8.839328 0.000000
v 0.025357 13.865159 0.063392
v 0.500000 -2.419062 0.000000
v 0.063392 13.865159 0.025357
v 0.063400 13.865159 0.000000
v 1.000000 -2.000000 0.000000
v 1.000000 -2.000000 0.400000
v 0.400000 -2.000000 1.000000
v 0.447595 0.000000 1.114903
v 0.447595 -2.000000 1.114903
v 1.121327 0.000000 0.447594
v 1.126736 0.000000 0.000000
v 1.121327 -2.000000 0.447594
v 1.130794 -2.000000 0.000000
v 1.000000 -2.265473 0.000000
v 1.000000 -2.265473 0.400000
v 0.400000 -2.265473 1.000000
v 0.090101 -3.142380 0.090101
v 1.000000 -2.419062 0.000000
v 1.000000 -2.419062 0.400000
v 0.400000 -2.419062 1.000000
v 1.203940 -2.265473 0.000000
v 1.203940 -2.419062 0.000000
v 1.203940 -2.265473 0.478043
v 0.478043 -2.265473 1.203940
v 1.203940 -2.419062 0.478043
v 0.478043 -2.419062 1.203940
v 0.447595 -0.666667 1.114903
v 0.447595 -1.333333 1.114903
v 1.124370 -0.666667 0.000000
v 1.124371 -1.333333 0.000000
v 1.121327 -1.333333 0.447594
v 1.121327 -0.666667 0.447594
v 1.128427 -0.666667 0.223797
v 1.126061 -1.333333 0.223797
v 1.308079 -1.333333 0.000000
v 1.308080 -0.666667 0.000000
v 1.308080 -0.666667 0.227683
v 1.308080 -1.333333 0.227683
v 3.229554 -0.666668 0.000000
v 3.229550 -0.666668 0.227678
v 3.229550 -1.333335 0.227678
v 3.229553 -1.333335 0.000000
v 1.948571 -1.973818 0.227681
v 2.589060 -1.973820 0.227680
v 2.589061 -1.973822 0.000000
v 1.948570 -1.973822 0.000000
v 1.948571 -0.026177 0.227681
v 2.589063 -0.026177 0.227680
v 2.589063 -0.026177 0.000000
v 1.948571 -0.026177 0.000000
v 3.016054 -1.333335 0.227679
v 3.016054 -0.666668 0.227679
v 2.589062 -0.239673 0.227680
v 1.948571 -0.239673 0.227681
v 1.521576 -0.666667 0.227683
v 1.521576 -1.333333 0.227683
v 2.589060 -1.760324 0.227680
v 1.948571 -1.760324 0.227681
v 3.016054 -1.333335 0.000000
v 3.016054 -0.666668 0.000000
v 2.589062 -0.239673 0.000000
v 1.948571 -0.239673 0.000000
v 1.521576 -0.666667 0.000000
v 1.521576 -1.333333 0.000000
v 2.589060 -1.760324 0.000000
v 1.948571 -1.760324 0.000000
v 0.090101 -3.142382 0.000000
v 0.090101 -4.815790 0.090101
v 0.090101 -4.815793 0.000000
v 0.791650 -3.888980 0.000000
v 0.791650 -4.069190 0.000000
v 0.791650 -4.069190 0.090101
v 0.791650 -3.888980 0.090101
v 0.090101 -3.330020 0.000000
v 0.604010 -3.888980 0.000000
v 0.090101 -4.651200 0.000000
v 0.604010 -4.069190 0.000000
v 0.604010 -4.069190 0.090101
v 0.090101 -4.651200 0.090101
v 0.604010 -3.888980 0.090101
v 0.090101 -3.330020 0.090101
v 0.000000 6.929919 -1.000000
v 0.000000 0.000000 -1.000000
v -0.400000 0.000000 -1.000000
v -1.000000 0.000000 -0.400000
v -1.000000 6.929919 -0.400000
v -0.400000 6.929919 -1.000000
v -1.000000 7.395268 -0.400000
v -0.465250 7.395268 -1.170510
v -1.170510 7.395268 -0.465250
v 0.000000 7.395268 -1.170510
v -0.465250 6.929919 -1.170510
v -1.170510 6.929919 -0.465250
v 0.000000 6.929919 -1.170510
v 0.000000 7.395268 -1.000000
v -0.400000 7.395268 -1.000000
v -0.253570 7.824286 -0.101428
v -0.101428 7.824286 -0.253570
v 0.000000 7.824286 -0.253602
v -0.253570 7.762669 -0.101428
v -0.746430 7.614570 -0.298572
v -0.101428 7.762669 -0.253570
v -0.298572 7.614570 -0.746430
v 0.000000 7.762669 -0.253602
v 0.000000 7.614570 -0.746398
v -0.101428 8.299682 -0.253570
v -0.253570 8.299682 -0.101428
v 0.000000 8.299682 -0.253602
v 0.000000 8.009636 -0.300503
v 0.000000 7.824286 -0.300503
v -0.300503 7.824286 -0.119383
v -0.300503 8.009636 -0.119383
v -0.119383 7.824286 -0.296898
v -0.119383 8.009636 -0.296898
v -0.050714 8.839328 -0.126785
v -0.126785 8.839328 -0.050714
v 0.000000 8.839328 -0.126801
v -0.025357 8.839328 -0.063392
v 0.000000 -2.419062 -0.500000
v -0.063392 8.839328 -0.025357
v 0.000000 8.839328 -0.063400
v -0.025357 13.865159 -0.063392
v -0.063392 13.865159 -0.025357
v 0.000000 13.865159 -0.063400
v 0.000000 -2.000000 -1.000000
v -1.000000 -2.000000 -0.400000
v -0.400000 -2.000000 -1.000000
v -0.447595 0.000000 -1.114903
v -0.447595 -2.000000 -1.114903
v -1.121327 0.000000 -0.447594
v 0.000000 0.000000 -1.124371
v -1.121327 -2.000000 -0.447594
v 0.000000 -2.000000 -1.124371
v 0.000000 -2.265473 -1.000000
v -1.000000 -2.265473 -0.400000
v -0.400000 -2.265473 -1.000000
v -0.090101 -3.142380 -0.090101
v 0.000000 -2.419062 -1.000000
v -1.000000 -2.419062 -0.400000
v -0.400000 -2.419062 -1.000000
v -1.203940 -2.265473 -0.478043
v -0.478043 -2.265473 -1.203940
v 0.000000 -2.265473 -1.203940
v -1.203940 -2.419062 -0.478043
v -0.478043 -2.419062 -1.203940
v 0.000000 -2.419062 -1.203940
v -0.447595 -0.666667 -1.114903
v -0.447595 -1.333333 -1.114903
v 0.000000 -1.333333 -1.124371
v 0.000000 -0.666667 -1.124371
v -1.121327 -1.333333 -0.447594
v -1.121327 -0.666667 -0.447594
v -1.128427 -0.666667 -0.223797
v -1.126061 -1.333333 -0.223797
v -1.308080 -0.666667 -0.227683
v -1.308080 -1.333333 -0.227683
v -3.229550 -0.666668 -0.227678
v -3.229550 -1.333335 -0.227678
v -1.948571 -1.973818 -0.227681
v -2.589060 -1.973820 -0.227680
v -1.948571 -0.026177 -0.227681
v -2.589063 -0.026177 -0.227680
v -3.016054 -1.333335 -0.227679
v -3.016054 -0.666668 -0.227679
v -2.589062 -0.239673 -0.227680
v -1.948571 -0.239673 -0.227681
v -1.521576 -0.666667 -0.227683
v -1.521576 -1.333333 -0.227683
v -2.589060 -1.760324 -0.227680
v -1.948571 -1.760324 -0.227681
v 0.000000 -3.142380 -0.090101
v -0.090101 -4.815790 -0.090101
v 0.000000 -4.815790 -0.090101
v -0.791650 -4.069190 -0.090101
v -0.791650 -3.888980 -0.090101
v -0.604010 -4.069190 -0.090101
v -0.090101 -4.651200 -0.090101
v -0.604010 -3.888980 -0.090101
v -0.090101 -3.330020 -0.090101
v 0.000000 -3.330020 -0.090101
v 0.000000 -4.651200 -0.090101
v 0.400000 0.000000 -1.000000
v 1.000000 0.000000 -0.400000
v 1.000000 6.929919 -0.400000
v 0.400000 6.929919 -1.000000
v 1.000000 7.395268 -0.400000
v 0.465250 7.395268 -1.170510
v 1.170510 7.395268 -0.465250
v 0.465250 6.929919 -1.170510
v 1.170510 6.929919 -0.465250
v 0.400000 7.395268 -1.000000
v 0.253570 7.824286 -0.101428
v 0.101428 7.824286 -0.253570
v 0.253570 7.762669 -0.101428
v 0.746430 7.614570 -0.298572
v 0.101428 7.762669 -0.253570
v 0.298572 7.614570 -0.746430
v 0.101428 8.299682 -0.253570
v 0.253570 8.299682 -0.101428
v 0.300503 7.824286 -0.119383
v 0.300503 8.009636 -0.119383
v 0.119383 7.824286 -0.296898
v 0.119383 8.009636 -0.296898
v 0.050714 8.839328 -0.126785
v 0.126785 8.839328 -0.050714
v 0.025357 8.839328 -0.063392
v 0.063392 8.839328 -0.025357
v 0.025357 13.865159 -0.063392
v 0.063392 13.865159 -0.025357
v 1.000000 -2.000000 -0.400000
v 0.400000 -2.000000 -1.000000
v 0.447595 0.000000 -1.114903
v 0.447595 -2.000000 -1.114903
v 1.121327 0.000000 -0.447594
v 1.121327 -2.000000 -0.447594
v 1.000000 -2.265473 -0.400000
v 0.400000 -2.265473 -1.000000
v 0.090101 -3.142380 -0.090101
v 1.000000 -2.419062 -0.400000
v 0.400000 -2.419062 -1.000000
v 1.203940 -2.265473 -0.478043
v 0.478043 -2.265473 -1.203940
v 1.203940 -2.419062 -0.478043
v 0.478043 -2.419062 -1.203940
v 0.447595 -0.666667 -1.114903
v 0.447595 -1.333333 -1.114903
v 1.121327 -1.333333 -0.447594
v 1.121327 -0.666667 -0.447594
v 1.128427 -0.666667 -0.223797
v 1.126061 -1.333333 -0.223797
v 1.308080 -0.666667 -0.227683
v 1.308080 -1.333333 -0.227683
v 3.229550 -0.666668 -0.227678
v 3.229550 -1.333335 -0.227678
v 1.948571 -1.973818 -0.227681
v 2.589060 -1.973820 -0.227680
v 1.948571 -0.026177 -0.227681
v 2.589063 -0.026177 -0.227680
v 3.016054 -1.333335 -0.227679
v 3.016054 -0.666668 -0.227679
v 2.589062 -0.239673 -0.227680
v 1.948571 -0.239673 -0.227681
v 1.521576 -0.666667 -0.227683
v 1.521576 -1.333333 -0.227683
v 2.589060 -1.760324 -0.227680
v 1.948571 -1.760324 -0.227681
v 0.090101 -4.815790 -0.090101
v 0.791650 -4.069190 -0.090101
v 0.791650 -3.888980 -0.090101
v 0.604010 -4.069190 -0.090101
v 0.090101 -4.651200 -0.090101
v 0.604010 -3.888980 -0.090101
v 0.090101 -3.330020 -0.090101
vn -0.0000 1.0000 -0.0000
vn -0.0000 -0.0000 1.0000
vn -0.7071 -0.0000 0.7071
vn -1.0000 -0.0000 -0.0000
vn -0.0000 -1.0000 -0.0000
vn -0.4652 0.7531 0.4652
vn -0.0000 0.7564 0.6541
vn -0.0003 -0.0000 1.0000
vn -1.0000 -0.0000 0.0003
vn -0.0000 0.9577 0.2878
vn -0.2054 0.9569 0.2054
vn -0.2878 0.9577 -0.0000
vn -0.6541 0.7564 -0.0000
vn -0.6951 0.1520 0.7027
vn -0.9735 0.2287 0.0003
vn -0.7000 -0.0000 0.7142
vn -0.0302 -0.0000 0.9995
vn -0.0163 0.1542 0.9879
vn -0.9872 0.1597 0.0001
vn -0.6887 0.2265 0.6887
vn -0.0003 0.2287 0.9735
vn -0.9998 -0.0000 0.0211
vn -0.0211 -0.0000 0.9998
vn -0.7037 -0.0000 0.7105
vn -0.6749 -0.2984 0.6749
vn -0.9998 -0.0035 -0.0181
vn -0.9996 -0.0018 0.0264
vn -0.9999 0.0096 -0.0076
vn -0.9995 -0.0000 0.0317
vn -0.9999 0.0066 0.0121
vn 0.0215 -0.0000 0.9998
vn -0.7071 -0.7071 -0.0000
vn -0.7071 0.7071 -0.0000
vn 0.7071 0.7071 -0.0000
vn 0.7071 -0.7071 -0.0000
vn 1.0000 -0.0000 -0.0000
vn -0.0000 -0.4930 0.8700
vn -0.8700 -0.4930 -0.0000
vn -0.7288 -0.6848 -0.0000
vn 0.7496 0.6619 -0.0000
vn -0.7288 0.6848 -0.0000
vn 0.7362 -0.6768 -0.0000
vn 0.7071 -0.0000 0.7071
vn 0.4652 0.7531 0.4652
vn 0.0003 -0.0000 1.0000
vn 1.0000 -0.0000 0.0003
vn 0.2054 0.9569 0.2054
vn 0.2878 0.9577 -0.0000
vn 0.6541 0.7564 -0.0000
vn 0.6951 0.1520 0.7027
vn 0.9735 0.2287 0.0003
vn 0.7000 -0.0000 0.7142
vn 0.0302 -0.0000 0.9995
vn 0.0163 0.1542 0.9879
vn 0.9872 0.1597 0.0001
vn 0.6887 0.2265 0.6887
vn 0.0003 0.2287 0.9735
vn 0.9998 -0.0000 0.0211
vn 0.0211 -0.0000 0.9998
vn 0.7037 -0.0000 0.7105
vn 0.6749 -0.2984 0.6749
vn 0.9998 -0.0035 -0.0181
vn 0.9996 -0.0018 0.0264
vn 0.9999 0.0096 -0.0076
vn 0.9995 -0.0000 0.0317
vn 0.9999 0.0066 0.0121
vn -0.0215 -0.0000 0.9998
vn 0.8700 -0.4930 -0.0000
vn 0.7288 -0.6848 -0.0000
vn -0.7496 0.6619 -0.0000
vn 0.7288 0.6848 -0.0000
vn -0.7362 -0.6768 -0.0000
vn -0.0000 -0.0000 -1.0000
vn -0.7071 -0.0000 -0.7071
vn -0.4652 0.7531 -0.4652
vn -0.0000 0.7564 -0.6541
vn -0.0003 -0.0000 -1.0000
vn -1.0000 -0.0000 -0.0003
vn -0.0000 0.9577 -0.2878
vn -0.2054 0.9569 -0.2054
vn -0.6951 0.1520 -0.7027
vn -0.9735 0.2287 -0.0003
vn -0.7000 -0.0000 -0.7142
vn -0.0302 -0.0000 -0.9995
vn -0.0163 0.1542 -0.9879
vn -0.9872 0.1597 -0.0001
vn -0.6887 0.2265 -0.6887
vn -0.0003 0.2287 -0.9735
vn -0.9998 -0.0000 -0.0211
vn -0.0211 -0.0000 -0.9998
vn -0.7037 -0.0000 -0.7105
vn -0.6749 -0.2984 -0.6749
vn -0.9998 -0.0035 0.0181
vn -0.9996 -0.0018 -0.0264
vn -0.9999 0.0096 0.0076
vn -0.9995 -0.0000 -0.0317
vn -0.9999 0.0066 -0.0121
vn 0.0215 -0.0000 -0.9998
vn -0.0000 -0.4930 -0.8700
vn 0.7071 -0.0000 -0.7071
vn 0.4652 0.7531 -0.4652
vn 0.0003 -0.0000 -1.0000
vn 1.0000 -0.0000 -0.0003
vn 0.2054 0.9569 -0.2054
vn 0.6951 0.1520 -0.7027
vn 0.9735 0.2287 -0.0003
vn 0.7000 -0.0000 -0.7142
vn 0.0302 -0.0000 -0.9995
vn 0.0163 0.1542 -0.9879
vn 0.9872 0.1597 -0.0001
vn 0.6887 0.2265 -0.6887
vn 0.0003 0.2287 -0.9735
vn 0.9998 -0.0000 -0.0211
vn 0.0211 -0.0000 -0.9998
vn 0.7037 -0.0000 -0.7105
vn 0.6749 -0.2984 -0.6749
vn 0.9998 -0.0035 0.0181
vn 0.9996 -0.0018 -0.0264
vn 0.9999 0.0096 0.0076
vn 0.9995 -0.0000 -0.0317
vn 0.9999 0.0066 -0.0121
vn -0.0215 -0.0000 -0.9998
vt 0.625000 0.875000
vt 0.375000 0.875000
vt 0.375000 0.125000
vt 0.625000 0.125000
vt 0.375000 0.925000
vt 0.375000 1.000000
vt 0.375000 0.075000
vt 0.625000 0.075000
vt 0.625000 1.000000
vt 0.625000 0.925000
vt 0.875000 0.675000
vt 0.000000 0.000000
vt 0.625000 0.925000
vt 0.800000 0.750000
vt 0.625000 1.000000
vt 0.625000 0.075000
vt 0.875000 0.675000
vt 0.750000 0.750000
vt 0.625000 0.875000
vt 0.875000 0.625000
vt 0.625000 0.125000
vt 0.625000 0.925000
vt 0.625000 0.075000
vt 0.625000 1.000000
vt 0.625000 0.125000
vt 0.625000 0.875000
vt 0.750000 0.750000
vt 0.000000 0.000000
vt 0.800000 0.750000
vt 0.000000 0.000000
vt 0.875000 0.625000
vt 0.875000 0.625000
vt 0.653126 0.466519
vt 0.653126 0.466519
vt 0.653098 0.466499
vt 0.875000 0.625000
vt 0.875000 0.625000
vt 0.653126 0.466519
vt 0.221874 0.158481
vt 0.653126 0.466519
vt 0.221874 0.158481
vt 0.653098 0.466499
vt 0.221902 0.158501
vt 0.653126 0.466519
vt 0.875000 0.625000
vt 0.653126 0.466519
vt 0.653098 0.466499
vt 0.653098 0.466499
vt 0.653098 0.466499
vt 0.653126 0.466519
vt 0.875000 0.625000
vt 0.653126 0.466519
vt 0.875000 0.625000
vt 0.653126 0.466519
vt 0.653126 0.466519
vt 0.764063 0.545759
vt 0.875000 0.625000
vt 0.764063 0.545759
vt 0.764049 0.545749
vt 0.819532 0.585380
vt 0.250000 0.687500
vt 0.000000 0.000000
vt 0.819532 0.585380
vt 0.819525 0.585375
vt 0.875000 0.625000
vt 0.819532 0.585380
vt 0.875000 0.625000
vt 0.187500 0.625000
vt 0.000000 0.000000
vt 0.819532 0.585380
vt 0.819525 0.585375
vt 0.875000 0.625000
vt 0.250000 0.750000
vt 0.125000 0.625000
vt 0.125000 0.675000
vt 0.200000 0.750000
vt 0.375000 0.925000
vt 0.375000 0.925000
vt 0.200000 0.750000
vt 0.375000 1.000000
vt 0.375000 0.075000
vt 0.375000 0.125000
vt 0.375000 0.875000
vt 0.375000 1.000000
vt 0.125000 0.675000
vt 0.375000 0.075000
vt 0.125000 0.625000
vt 0.375000 0.125000
vt 0.375000 0.875000
vt 0.250000 0.750000
vt 0.250000 0.750000
vt 0.125000 0.625000
vt 0.125000 0.675000
vt 0.200000 0.750000
vt 0.250000 0.625000
vt 0.000000 0.000000
vt 0.250000 0.750000
vt 0.125000 0.625000
vt 0.125000 0.675000
vt 0.200000 0.750000
vt 0.125000 0.625000
vt 0.125000 0.625000
vt 0.125000 0.675000
vt 0.200000 0.750000
vt 0.250000 0.750000
vt 0.125000 0.675000
vt 0.200000 0.750000
vt 0.250000 0.750000
vt 0.375000 0.925000
vt 0.375000 0.925000
vt 0.375000 0.875000
vt 0.375000 0.875000
vt 0.375000 0.125000
vt 0.375000 0.125000
vt 0.375000 1.000000
vt 0.375000 0.075000
vt 0.375000 1.000000
vt 0.375000 0.075000
vt 0.375000 0.100000
vt 0.375000 0.100000
vt 0.375000 0.125000
vt 0.375000 0.125000
vt 0.375000 0.100000
vt 0.375000 0.100000
vt 0.375000 0.125000
vt 0.375000 0.100000
vt 0.375000 0.100000
vt 0.375000 0.125000
vt 0.375000 0.100000
vt 0.375000 0.100000
vt 0.375000 0.125000
vt 0.375000 0.125000
vt 0.375000 0.100000
vt 0.375000 0.100000
vt 0.375000 0.125000
vt 0.375000 0.125000
vt 0.375000 0.100000
vt 0.375000 0.100000
vt 0.375000 0.100000
vt 0.375000 0.100000
vt 0.375000 0.100000
vt 0.375000 0.100000
vt 0.375000 0.100000
vt 0.375000 0.100000
vt 0.375000 0.100000
vt 0.375000 0.100000
vt 0.375000 0.100000
vt 0.375000 0.100000
vt 0.375000 0.100000
vt 0.375000 0.100000
vt 0.375000 0.100000
vt 0.375000 0.100000
vt 0.000000 0.000000
vt 0.000000 0.000000
vt 0.000000 0.000000
vt 0.000000 0.000000
vt 0.000000 0.000000
vt 0.000000 0.000000
vt 0.000000 0.000000
vt 0.000000 0.000000
vt 0.000000 0.000000
vt 0.000000 0.000000
vt 0.000000 0.000000
vt 0.000000 0.000000
vt 0.000000 0.000000
vt 0.000000 0.000000
vt 0.000000 0.000000
vt 0.000000 0.000000
vt 0.000000 0.000000
vt 0.000000 0.000000
vt 0.000000 0.000000
vt 0.000000 0.000000
vt 0.000000 0.000000
vt 0.000000 0.000000
vt 0.375000 0.125000
vt 0.625000 0.125000
vt 0.375000 0.925000
vt 0.375000 1.000000
vt 0.375000 0.075000
vt 0.625000 0.075000
vt 0.625000 1.000000
vt 0.625000 0.925000
vt 0.875000 0.675000
vt 0.000000 0.000000
vt 0.625000 0.925000
vt 0.800000 0.750000
vt 0.625000 1.000000
vt 0.625000 0.075000
vt 0.875000 0.675000
vt 0.875000 0.625000
vt 0.625000 0.125000
vt 0.625000 0.925000
vt 0.625000 0.075000
vt 0.625000 1.000000
vt 0.625000 0.125000
vt 0.800000 0.750000
vt 0.000000 0.000000
vt 0.875000 0.625000
vt 0.875000 0.625000
vt 0.653126 0.466519
vt 0.653126 0.466519
vt 0.875000 0.625000
vt 0.875000 0.625000
vt 0.653126 0.466519
vt 0.221874 0.158481
vt 0.653126 0.466519
vt 0.221874 0.158481
vt 0.653126 0.466519
vt 0.875000 0.625000
vt 0.653126 0.466519
vt 0.653126 0.466519
vt 0.875000 0.625000
vt 0.653126 0.466519
vt 0.875000 0.625000
vt 0.653126 0.466519
vt 0.653126 0.466519
vt 0.764063 0.545759
vt 0.875000 0.625000
vt 0.764063 0.545759
vt 0.819532 0.585380
vt 0.819532 0.585380
vt 0.875000 0.625000
vt 0.819532 0.585380
vt 0.187500 0.625000
vt 0.000000 0.000000
vt 0.819532 0.585380
vt 0.875000 0.625000
vt 0.125000 0.625000
vt 0.125000 0.675000
vt 0.200000 0.750000
vt 0.375000 0.925000
vt 0.375000 0.925000
vt 0.200000 0.750000
vt 0.375000 1.000000
vt 0.375000 0.075000
vt 0.375000 0.125000
vt 0.375000 1.000000
vt 0.125000 0.675000
vt 0.375000 0.075000
vt 0.125000 0.625000
vt 0.375000 0.125000
vt 0.125000 0.625000
vt 0.125000 0.675000
vt 0.200000 0.750000
vt 0.250000 0.625000
vt 0.000000 0.000000
vt 0.125000 0.625000
vt 0.125000 0.675000
vt 0.200000 0.750000
vt 0.125000 0.625000
vt 0.125000 0.625000
vt 0.125000 0.675000
vt 0.200000 0.750000
vt 0.125000 0.675000
vt 0.200000 0.750000
vt 0.375000 0.925000
vt 0.375000 0.925000
vt 0.375000 0.125000
vt 0.375000 0.125000
vt 0.375000 1.000000
vt 0.375000 0.075000
vt 0.375000 1.000000
vt 0.375000 0.075000
vt 0.375000 0.100000
vt 0.375000 0.100000
vt 0.375000 0.125000
vt 0.375000 0.125000
vt 0.375000 0.100000
vt 0.375000 0.100000
vt 0.375000 0.125000
vt 0.375000 0.100000
vt 0.375000 0.100000
vt 0.375000 0.125000
vt 0.375000 0.100000
vt 0.375000 0.100000
vt 0.375000 0.125000
vt 0.375000 0.125000
vt 0.375000 0.100000
vt 0.375000 0.100000
vt 0.375000 0.125000
vt 0.375000 0.125000
vt 0.375000 0.100000
vt 0.375000 0.100000
vt 0.375000 0.100000
vt 0.375000 0.100000
vt 0.375000 0.100000
vt 0.375000 0.100000
vt 0.375000 0.100000
vt 0.375000 0.100000
vt 0.375000 0.100000
vt 0.375000 0.100000
vt 0.375000 0.100000
vt 0.375000 0.100000
vt 0.375000 0.100000
vt 0.375000 0.100000
vt 0.375000 0.100000
vt 0.375000 0.100000
vt 0.000000 0.000000
vt 0.000000 0.000000
vt 0.000000 0.000000
vt 0.000000 0.000000
vt 0.000000 0.000000
vt 0.000000 0.000000
vt 0.000000 0.000000
vt 0.000000 0.000000
vt 0.000000 0.000000
vt 0.000000 0.000000
vt 0.000000 0.000000
vt 0.000000 0.000000
vt 0.000000 0.000000
vt 0.000000 0.000000
vt 0.000000 0.000000
vt 0.625000 0.875000
vt 0.375000 0.875000
vt 0.375000 0.925000
vt 0.375000 1.000000
vt 0.375000 0.075000
vt 0.625000 0.075000
vt 0.625000 1.000000
vt 0.625000 0.925000
vt 0.875000 0.675000
vt 0.000000 0.000000
vt 0.625000 0.925000
vt 0.800000 0.750000
vt 0.625000 1.000000
vt 0.625000 0.075000
vt 0.875000 0.675000
vt 0.750000 0.750000
vt 0.625000 0.875000
vt 0.625000 0.925000
vt 0.625000 0.075000
vt 0.625000 1.000000
vt 0.625000 0.875000
vt 0.750000 0.750000
vt 0.000000 0.000000
vt 0.800000 0.750000
vt 0.000000 0.000000
vt 0.653126 0.466519
vt 0.653126 0.466519
vt 0.653098 0.466499
vt 0.653126 0.466519
vt 0.221874 0.158481
vt 0.653126 0.466519
vt 0.221874 0.158481
vt 0.653098 0.466499
vt 0.221902 0.158501
vt 0.653126 0.466519
vt 0.653126 0.466519
vt 0.653098 0.466499
vt 0.653098 0.466499
vt 0.653098 0.466499
vt 0.653126 0.466519
vt 0.653126 0.466519
vt 0.653126 0.466519
vt 0.653126 0.466519
vt 0.764063 0.545759
vt 0.764063 0.545759
vt 0.764049 0.545749
vt 0.819532 0.585380
vt 0.250000 0.687500
vt 0.000000 0.000000
vt 0.819532 0.585380
vt 0.819525 0.585375
vt 0.819532 0.585380
vt 0.819532 0.585380
vt 0.819525 0.585375
vt 0.250000 0.750000
vt 0.125000 0.675000
vt 0.200000 0.750000
vt 0.375000 0.925000
vt 0.375000 0.925000
vt 0.200000 0.750000
vt 0.375000 1.000000
vt 0.375000 0.075000
vt 0.375000 0.875000
vt 0.375000 1.000000
vt 0.125000 0.675000
vt 0.375000 0.075000
vt 0.375000 0.875000
vt 0.250000 0.750000
vt 0.250000 0.750000
vt 0.125000 0.675000
vt 0.200000 0.750000
vt 0.250000 0.625000
vt 0.000000 0.000000
vt 0.250000 0.750000
vt 0.125000 0.675000
vt 0.200000 0.750000
vt 0.125000 0.675000
vt 0.200000 0.750000
vt 0.250000 0.750000
vt 0.125000 0.675000
vt 0.200000 0.750000
vt 0.250000 0.750000
vt 0.375000 0.925000
vt 0.375000 0.925000
vt 0.375000 0.875000
vt 0.375000 0.875000
vt 0.375000 1.000000
vt 0.375000 0.075000
vt 0.375000 1.000000
vt 0.375000 0.075000
vt 0.375000 0.100000
vt 0.375000 0.100000
vt 0.375000 0.100000
vt 0.375000 0.100000
vt 0.375000 0.100000
vt 0.375000 0.100000
vt 0.375000 0.100000
vt 0.375000 0.100000
vt 0.375000 0.100000
vt 0.375000 0.100000
vt 0.375000 0.100000
vt 0.375000 0.100000
vt 0.375000 0.100000
vt 0.375000 0.100000
vt 0.375000 0.100000
vt 0.375000 0.100000
vt 0.375000 0.100000
vt 0.375000 0.100000
vt 0.000000 0.000000
vt 0.000000 0.000000
vt 0.000000 0.000000
vt 0.000000 0.000000
vt 0.000000 0.000000
vt 0.000000 0.000000
vt 0.000000 0.000000
vt 0.000000 0.000000
vt 0.000000 0.000000
vt 0.000000 0.000000
vt 0.000000 0.000000
vt 0.375000 0.925000
vt 0.375000 1.000000
vt 0.375000 0.075000
vt 0.625000 0.075000
vt 0.625000 1.000000
vt 0.625000 0.925000
vt 0.875000 0.675000
vt 0.000000 0.000000
vt 0.625000 0.925000
vt 0.800000 0.750000
vt 0.625000 1.000000
vt 0.625000 0.075000
vt 0.875000 0.675000
vt 0.625000 0.925000
vt 0.625000 0.075000
vt 0.625000 1.000000
vt 0.800000 0.750000
vt 0.000000 0.000000
vt 0.653126 0.466519
vt 0.653126 0.466519
vt 0.653126 0.466519
vt 0.221874 0.158481
vt 0.653126 0.466519
vt 0.221874 0.158481
vt 0.653126 0.466519
vt 0.653126 0.466519
vt 0.653126 0.466519
vt 0.653126 0.466519
vt 0.653126 0.466519
vt 0.653126 0.466519
vt 0.764063 0.545759
vt 0.764063 0.545759
vt 0.819532 0.585380
vt 0.819532 0.585380
vt 0.819532 0.585380
vt 0.819532 0.585380
vt 0.125000 0.675000
vt 0.200000 0.750000
vt 0.375000 0.925000
vt 0.375000 0.925000
vt 0.200000 0.750000
vt 0.375000 1.000000
vt 0.375000 0.075000
vt 0.375000 1.000000
vt 0.125000 0.675000
vt 0.375000 0.075000
vt 0.125000 0.675000
vt 0.200000 0.750000
vt 0.250000 0.625000
vt 0.000000 0.000000
vt 0.125000 0.675000
vt 0.200000 0.750000
vt 0.125000 0.675000
vt 0.200000 0.750000
vt 0.125000 0.675000
vt 0.200000 0.750000
vt 0.375000 0.925000
vt 0.375000 0.925000
vt 0.375000 1.000000
vt 0.375000 0.075000
vt 0.375000 1.000000
vt 0.375000 0.075000
vt 0.375000 0.100000
vt 0.375000 0.100000
vt 0.375000 0.100000
vt 0.375000 0.100000
vt 0.375000 0.100000
vt 0.375000 0.100000
vt 0.375000 0.100000
vt 0.375000 0.100000
vt 0.375000 0.100000
vt 0.375000 0.100000
vt 0.375000 0.100000
vt 0.375000 0.100000
vt 0.375000 0.100000
vt 0.375000 0.100000
vt 0.375000 0.100000
vt 0.375000 0.100000
vt 0.375000 0.100000
vt 0.375000 0.100000
vt 0.000000 0.000000
vt 0.000000 0.000000
vt 0.000000 0.000000
vt 0.000000 0.000000
vt 0.000000 0.000000
vt 0.000000 0.000000
vt 0.000000 0.000000
s 0
f 9/11/1 20/31/1 13/20/1 11/17/1
f 5/5/1 6/6/1 66/80/1 64/77/1
f 2/2/2 1/1/2 8/10/2 5/5/2
f 5/5/3 8/10/3 7/9/3 6/6/3
f 6/7/4 7/8/4 4/4/4 3/3/4
f 18/27/1 19/29/1 10/14/1 12/18/1
f 15/24/3 14/22/3 10/13/3 11/15/3
f 14/22/2 17/26/2 12/19/2 10/13/2
f 16/25/4 15/23/4 11/16/4 13/21/4
f 4/4/5 7/8/5 15/23/5 16/25/5
f 7/9/5 8/10/5 14/22/5 15/24/5
f 8/10/5 1/1/5 17/26/5 14/22/5
f 19/29/1 9/11/1 11/17/1 10/14/1
f 9/12/6 19/30/6 30/41/6 28/39/6
f 19/30/7 18/28/7 32/43/7 30/41/7
f 29/40/8 31/42/8 24/35/8 23/34/8
f 26/37/9 27/38/9 22/33/9 21/32/9
f 31/42/10 29/40/10 30/41/10 32/43/10
f 29/40/11 27/38/11 28/39/11 30/41/11
f 25/36/12 28/39/12 27/38/12 26/37/12
f 25/36/13 20/31/13 9/12/13 28/39/13
f 21/32/5 22/33/5 39/50/5 40/51/5
f 22/33/5 23/34/5 43/54/5 39/50/5
f 33/44/14 35/46/14 41/52/14 44/55/14
f 27/38/3 29/40/3 23/34/3 22/33/3
f 46/57/15 34/45/15 35/46/15 47/58/15
f 53/65/9 51/63/9 57/70/9 59/72/9
f 51/63/3 49/60/3 54/66/3 57/70/3
f 39/50/16 43/54/16 44/55/16 41/52/16
f 43/54/17 38/49/17 37/48/17 44/55/17
f 40/51/4 39/50/4 41/52/4 42/53/4
f 36/47/18 33/44/18 44/55/18 37/48/18
f 23/34/5 24/35/5 38/49/5 43/54/5
f 35/46/19 34/45/19 42/53/19 41/52/19
f 35/46/20 33/44/20 45/56/20 47/58/20
f 33/44/21 36/47/21 48/59/21 45/56/21
f 53/65/1 46/57/1 47/58/1 51/63/1
f 49/60/8 52/64/8 58/71/8 54/66/8
f 47/58/1 45/56/1 49/60/1 51/63/1
f 45/56/1 48/59/1 52/64/1 49/60/1
f 54/66/1 58/71/1 55/67/1
f 57/70/1 54/66/1 55/67/1
f 55/67/1 59/72/1 57/70/1
f 78/98/5 56/68/5 50/61/5 77/97/5 80/100/5 79/99/5
f 62/75/4 61/74/4 73/92/4 74/93/4
f 98/120/22 70/88/22 69/86/22
f 91/111/23 90/110/23 65/78/23 71/89/23
f 90/110/24 95/115/24 69/84/24 65/78/24
f 62/75/5 63/76/5 65/79/5 69/85/5
f 6/7/1 3/3/1 67/82/1 66/81/1
f 2/2/1 5/5/1 64/77/1 68/83/1
f 61/74/5 62/75/5 69/85/5 70/87/5
f 63/76/5 60/73/5 71/90/5 65/79/5
f 78/98/5 79/99/5 86/106/5 82/102/5
f 63/76/3 62/75/3 74/93/3 75/94/3
f 60/73/2 63/76/2 75/94/2 72/91/2
f 56/68/25 76/95/25 50/61/25
f 72/91/1 75/94/1 84/104/1 85/105/1
f 74/93/1 73/92/1 81/101/1 83/103/1
f 84/104/3 83/103/3 86/106/3 87/107/3
f 83/103/4 81/101/4 82/102/4 86/106/4
f 85/105/2 84/104/2 87/107/2 88/108/2
f 80/100/5 77/97/5 88/108/5 87/107/5
f 75/94/1 74/93/1 83/103/1 84/104/1
f 79/99/5 80/100/5 87/107/5 86/106/5
f 64/77/24 66/80/24 96/117/24 89/109/24
f 89/109/24 96/117/24 95/115/24 90/110/24
f 68/83/23 64/77/23 89/109/23 92/112/23
f 92/112/23 89/109/23 90/110/23 91/111/23
f 67/82/26 93/113/26 97/119/26
f 96/118/27 97/119/27 98/120/27 95/116/27
f 69/86/22 95/116/22 98/120/22
f 98/120/28 94/114/28 70/88/28
f 96/118/29 66/81/29 97/119/29
f 66/81/30 67/82/30 97/119/30
f 98/120/31 97/119/31 101/123/31 102/124/31
f 97/119/1 93/113/1 100/122/1 101/123/1
f 94/114/5 98/120/5 102/124/5 99/121/5
f 109/131/32 108/130/32 105/127/32 106/128/32
f 104/126/4 103/125/4 106/128/4 105/127/4
f 112/134/33 113/135/33 103/125/33 104/126/33
f 101/123/34 100/122/34 114/136/34 111/133/34
f 111/133/1 114/136/1 113/135/1 112/134/1
f 107/129/2 122/144/2 121/143/2 108/130/2
f 99/121/35 102/124/35 107/129/35 110/132/35
f 110/132/5 107/129/5 108/130/5 109/131/5
f 119/141/2 101/123/2 111/133/2 118/140/2
f 105/127/2 115/137/2 116/138/2 104/126/2
f 108/130/2 121/143/2 115/137/2 105/127/2
f 117/139/2 118/140/2 111/133/2 112/134/2
f 119/141/2 120/142/2 102/124/2 101/123/2
f 102/124/2 120/142/2 122/144/2 107/129/2
f 104/126/2 116/138/2 117/139/2 112/134/2
f 122/144/33 120/142/33 128/150/33 130/152/33
f 121/143/1 122/144/1 130/152/1 129/151/1
f 118/140/5 117/139/5 125/147/5 126/148/5
f 119/141/32 118/140/32 126/148/32 127/149/32
f 115/137/34 121/143/34 129/151/34 123/145/34
f 120/142/4 119/141/4 127/149/4 128/150/4
f 116/138/36 115/137/36 123/145/36 124/146/36
f 117/139/35 116/138/35 124/146/35 125/147/35
f 50/62/37 76/96/37 131/153/37
f 56/69/38 132/154/38 76/96/38
f 140/162/39 139/161/39 136/158/39 134/156/39
f 134/156/5 136/158/5 137/159/5
f 134/156/5 137/159/5 135/157/5
f 148/170/1 152/174/1 146/168/1 144/166/1
f 131/153/2 76/96/2 150/172/2 151/173/2
f 147/169/40 148/170/40 144/166/40 145/167/40
f 149/171/36 147/169/36 145/167/36 143/165/36
f 76/96/41 132/154/41 138/160/41 141/163/41
f 141/163/4 138/160/4 139/161/4 140/162/4
f 150/172/42 149/171/42 143/165/42 142/164/42
f 151/173/5 150/172/5 142/164/5 133/155/5
f 147/169/2 149/171/2 141/163/2 140/162/2
f 134/156/2 148/170/2 147/169/2 140/162/2
f 149/171/2 150/172/2 76/96/2 141/163/2
f 152/174/2 148/170/2 134/156/2 135/157/2
f 159/183/1 161/189/1 162/190/1 167/198/1
f 155/177/1 199/231/1 201/234/1 156/178/1
f 2/2/2 155/177/2 158/182/2 1/1/2
f 155/177/43 156/178/43 157/181/43 158/182/43
f 156/179/36 153/175/36 154/176/36 157/180/36
f 18/27/1 12/18/1 160/186/1 166/196/1
f 164/194/43 161/187/43 160/185/43 163/192/43
f 163/192/2 160/185/2 12/19/2 17/26/2
f 165/195/36 162/191/36 161/188/36 164/193/36
f 154/176/5 165/195/5 164/193/5 157/180/5
f 157/181/5 164/194/5 163/192/5 158/182/5
f 158/182/5 163/192/5 17/26/5 1/1/5
f 166/196/1 160/186/1 161/189/1 159/183/1
f 159/184/44 174/205/44 176/207/44 166/197/44
f 166/197/7 176/207/7 32/43/7 18/28/7
f 175/206/45 170/201/45 24/35/45 31/42/45
f 172/203/46 168/199/46 169/200/46 173/204/46
f 31/42/10 32/43/10 176/207/10 175/206/10
f 175/206/47 176/207/47 174/205/47 173/204/47
f 171/202/48 172/203/48 173/204/48 174/205/48
f 171/202/49 174/205/49 159/184/49 167/198/49
f 168/199/5 181/212/5 180/211/5 169/200/5
f 169/200/5 180/211/5 184/215/5 170/201/5
f 177/208/50 185/216/50 182/213/50 179/210/50
f 173/204/43 169/200/43 170/201/43 175/206/43
f 187/218/51 188/219/51 179/210/51 178/209/51
f 191/222/46 195/227/46 194/226/46 190/221/46
f 190/221/43 194/226/43 192/223/43 189/220/43
f 180/211/52 182/213/52 185/216/52 184/215/52
f 184/215/53 185/216/53 37/48/53 38/49/53
f 181/212/36 183/214/36 182/213/36 180/211/36
f 36/47/54 37/48/54 185/216/54 177/208/54
f 170/201/5 184/215/5 38/49/5 24/35/5
f 179/210/55 182/213/55 183/214/55 178/209/55
f 179/210/56 188/219/56 186/217/56 177/208/56
f 177/208/57 186/217/57 48/59/57 36/47/57
f 191/222/1 190/221/1 188/219/1 187/218/1
f 189/220/45 192/223/45 58/71/45 52/64/45
f 188/219/1 190/221/1 189/220/1 186/217/1
f 186/217/1 189/220/1 52/64/1 48/59/1
f 192/223/1 55/67/1 58/71/1
f 194/226/1 55/67/1 192/223/1
f 55/67/1 194/226/1 195/227/1
f 209/247/5 210/248/5 211/249/5 77/97/5 50/61/5 193/224/5
f 197/229/36 206/243/36 205/242/36 196/228/36
f 225/265/58 203/239/58 204/241/58
f 91/111/59 71/89/59 200/232/59 219/257/59
f 219/257/60 200/232/60 203/237/60 222/260/60
f 197/229/5 203/238/5 200/233/5 198/230/5
f 156/179/1 201/235/1 202/236/1 153/175/1
f 2/2/1 68/83/1 199/231/1 155/177/1
f 196/228/5 204/240/5 203/238/5 197/229/5
f 198/230/5 200/233/5 71/90/5 60/73/5
f 209/247/5 213/251/5 216/254/5 210/248/5
f 198/230/43 207/244/43 206/243/43 197/229/43
f 60/73/2 72/91/2 207/244/2 198/230/2
f 193/224/61 50/61/61 208/245/61
f 72/91/1 85/105/1 215/253/1 207/244/1
f 206/243/1 214/252/1 212/250/1 205/242/1
f 215/253/43 217/255/43 216/254/43 214/252/43
f 214/252/36 216/254/36 213/251/36 212/250/36
f 85/105/2 88/108/2 217/255/2 215/253/2
f 211/249/5 217/255/5 88/108/5 77/97/5
f 207/244/1 215/253/1 214/252/1 206/243/1
f 210/248/5 216/254/5 217/255/5 211/249/5
f 199/231/60 218/256/60 223/262/60 201/234/60
f 218/256/60 219/257/60 222/260/60 223/262/60
f 68/83/59 92/112/59 218/256/59 199/231/59
f 92/112/59 91/111/59 219/257/59 218/256/59
f 202/236/62 224/264/62 220/258/62
f 223/263/63 222/261/63 225/265/63 224/264/63
f 203/239/58 225/265/58 222/261/58
f 225/265/64 204/241/64 221/259/64
f 223/263/65 224/264/65 201/235/65
f 201/235/66 224/264/66 202/236/66
f 225/265/67 229/269/67 228/268/67 224/264/67
f 224/264/1 228/268/1 227/267/1 220/258/1
f 221/259/5 226/266/5 229/269/5 225/265/5
f 236/276/35 233/273/35 232/272/35 235/275/35
f 231/271/36 232/272/36 233/273/36 230/270/36
f 239/279/34 231/271/34 230/270/34 240/280/34
f 228/268/33 238/278/33 241/281/33 227/267/33
f 238/278/1 239/279/1 240/280/1 241/281/1
f 234/274/2 235/275/2 248/288/2 249/289/2
f 226/266/32 237/277/32 234/274/32 229/269/32
f 237/277/5 236/276/5 235/275/5 234/274/5
f 246/286/2 245/285/2 238/278/2 228/268/2
f 232/272/2 231/271/2 243/283/2 242/282/2
f 235/275/2 232/272/2 242/282/2 248/288/2
f 244/284/2 239/279/2 238/278/2 245/285/2
f 246/286/2 228/268/2 229/269/2 247/287/2
f 229/269/2 234/274/2 249/289/2 247/287/2
f 231/271/2 239/279/2 244/284/2 243/283/2
f 249/289/34 257/297/34 255/295/34 247/287/34
f 248/288/1 256/296/1 257/297/1 249/289/1
f 245/285/5 253/293/5 252/292/5 244/284/5
f 246/286/35 254/294/35 253/293/35 245/285/35
f 242/282/33 250/290/33 256/296/33 248/288/33
f 247/287/36 255/295/36 254/294/36 246/286/36
f 243/283/4 251/291/4 250/290/4 242/282/4
f 244/284/32 252/292/32 251/291/32 243/283/32
f 50/62/37 131/153/37 208/246/37
f 193/225/68 208/246/68 258/298/68
f 263/303/69 259/299/69 260/300/69 262/302/69
f 259/299/5 137/159/5 260/300/5
f 259/299/5 135/157/5 137/159/5
f 270/310/1 267/307/1 146/168/1 152/174/1
f 131/153/2 151/173/2 272/312/2 208/246/2
f 269/309/70 268/308/70 267/307/70 270/310/70
f 271/311/4 266/306/4 268/308/4 269/309/4
f 208/246/71 264/304/71 261/301/71 258/298/71
f 264/304/36 263/303/36 262/302/36 261/301/36
f 272/312/72 265/305/72 266/306/72 271/311/72
f 151/173/5 133/155/5 265/305/5 272/312/5
f 269/309/2 263/303/2 264/304/2 271/311/2
f 259/299/2 263/303/2 269/309/2 270/310/2
f 271/311/2 264/304/2 208/246/2 272/312/2
f 152/174/2 135/157/2 259/299/2 270/310/2
f 279/321/1 281/327/1 13/20/1 20/31/1
f 275/315/1 319/370/1 321/373/1 276/316/1
f 274/314/73 275/315/73 278/320/73 273/313/73
f 275/315/74 276/316/74 277/319/74 278/320/74
f 276/317/4 3/3/4 4/4/4 277/318/4
f 286/334/1 282/328/1 280/324/1 287/336/1
f 284/332/74 281/325/74 280/323/74 283/330/74
f 283/330/73 280/323/73 282/329/73 285/333/73
f 16/25/4 13/21/4 281/326/4 284/331/4
f 4/4/5 16/25/5 284/331/5 277/318/5
f 277/319/5 284/332/5 283/330/5 278/320/5
f 278/320/5 283/330/5 285/333/5 273/313/5
f 287/336/1 280/324/1 281/327/1 279/321/1
f 279/322/75 292/342/75 294/344/75 287/337/75
f 287/337/76 294/344/76 296/346/76 286/335/76
f 293/343/77 289/339/77 290/340/77 295/345/77
f 26/37/78 21/32/78 288/338/78 291/341/78
f 295/345/79 296/346/79 294/344/79 293/343/79
f 293/343/80 294/344/80 292/342/80 291/341/80
f 25/36/12 26/37/12 291/341/12 292/342/12
f 25/36/13 292/342/13 279/322/13 20/31/13
f 21/32/5 40/51/5 302/352/5 288/338/5
f 288/338/5 302/352/5 304/354/5 289/339/5
f 297/347/81 305/355/81 303/353/81 298/348/81
f 291/341/74 288/338/74 289/339/74 293/343/74
f 46/57/82 307/357/82 298/348/82 34/45/82
f 53/65/78 59/72/78 314/365/78 311/362/78
f 311/362/74 314/365/74 313/364/74 309/359/74
f 302/352/83 303/353/83 305/355/83 304/354/83
f 304/354/84 305/355/84 300/350/84 301/351/84
f 40/51/4 42/53/4 303/353/4 302/352/4
f 299/349/85 300/350/85 305/355/85 297/347/85
f 289/339/5 304/354/5 301/351/5 290/340/5
f 298/348/86 303/353/86 42/53/86 34/45/86
f 298/348/87 307/357/87 306/356/87 297/347/87
f 297/347/88 306/356/88 308/358/88 299/349/88
f 53/65/1 311/362/1 307/357/1 46/57/1
f 309/359/77 313/364/77 315/366/77 312/363/77
f 307/357/1 311/362/1 309/359/1 306/356/1
f 306/356/1 309/359/1 312/363/1 308/358/1
f 313/364/1 55/67/1 315/366/1
f 314/365/1 55/67/1 313/364/1
f 55/67/1 314/365/1 59/72/1
f 78/98/5 330/387/5 331/388/5 329/386/5 310/360/5 56/68/5
f 317/368/4 326/382/4 73/92/4 61/74/4
f 345/404/89 323/378/89 70/88/89
f 340/397/90 324/379/90 320/371/90 339/396/90
f 339/396/91 320/371/91 323/376/91 342/399/91
f 317/368/5 323/377/5 320/372/5 318/369/5
f 276/317/1 321/374/1 67/82/1 3/3/1
f 274/314/1 322/375/1 319/370/1 275/315/1
f 61/74/5 70/87/5 323/377/5 317/368/5
f 318/369/5 320/372/5 324/380/5 316/367/5
f 78/98/5 82/102/5 335/392/5 330/387/5
f 318/369/74 327/383/74 326/382/74 317/368/74
f 316/367/73 325/381/73 327/383/73 318/369/73
f 56/68/92 310/360/92 328/384/92
f 325/381/1 334/391/1 333/390/1 327/383/1
f 326/382/1 332/389/1 81/101/1 73/92/1
f 333/390/74 336/393/74 335/392/74 332/389/74
f 332/389/4 335/392/4 82/102/4 81/101/4
f 334/391/73 337/394/73 336/393/73 333/390/73
f 331/388/5 336/393/5 337/394/5 329/386/5
f 327/383/1 333/390/1 332/389/1 326/382/1
f 330/387/5 335/392/5 336/393/5 331/388/5
f 319/370/91 338/395/91 343/401/91 321/373/91
f 338/395/91 339/396/91 342/399/91 343/401/91
f 322/375/90 341/398/90 338/395/90 319/370/90
f 341/398/90 340/397/90 339/396/90 338/395/90
f 67/82/93 344/403/93 93/113/93
f 343/402/94 342/400/94 345/404/94 344/403/94
f 323/378/89 345/404/89 342/400/89
f 345/404/95 70/88/95 94/114/95
f 343/402/96 344/403/96 321/374/96
f 321/374/97 344/403/97 67/82/97
f 345/404/98 347/406/98 346/405/98 344/403/98
f 344/403/1 346/405/1 100/122/1 93/113/1
f 94/114/5 99/121/5 347/406/5 345/404/5
f 109/131/32 106/128/32 349/408/32 351/410/32
f 348/407/4 349/408/4 106/128/4 103/125/4
f 353/412/33 348/407/33 103/125/33 113/135/33
f 346/405/34 352/411/34 114/136/34 100/122/34
f 352/411/1 353/412/1 113/135/1 114/136/1
f 350/409/73 351/410/73 360/419/73 361/420/73
f 99/121/35 110/132/35 350/409/35 347/406/35
f 110/132/5 109/131/5 351/410/5 350/409/5
f 358/417/73 357/416/73 352/411/73 346/405/73
f 349/408/73 348/407/73 355/414/73 354/413/73
f 351/410/73 349/408/73 354/413/73 360/419/73
f 356/415/73 353/412/73 352/411/73 357/416/73
f 358/417/73 346/405/73 347/406/73 359/418/73
f 347/406/73 350/409/73 361/420/73 359/418/73
f 348/407/73 353/412/73 356/415/73 355/414/73
f 361/420/33 130/152/33 128/150/33 359/418/33
f 360/419/1 129/151/1 130/152/1 361/420/1
f 357/416/5 126/148/5 125/147/5 356/415/5
f 358/417/32 127/149/32 126/148/32 357/416/32
f 354/413/34 123/145/34 129/151/34 360/419/34
f 359/418/4 128/150/4 127/149/4 358/417/4
f 355/414/36 124/146/36 123/145/36 354/413/36
f 356/415/35 125/147/35 124/146/35 355/414/35
f 310/361/99 362/421/99 328/385/99
f 56/69/38 328/385/38 132/154/38
f 365/424/39 363/422/39 136/158/39 139/161/39
f 363/422/5 137/159/5 136/158/5
f 363/422/5 364/423/5 137/159/5
f 368/427/1 144/166/1 146/168/1 372/431/1
f 362/421/73 371/430/73 370/429/73 328/385/73
f 367/426/40 145/167/40 144/166/40 368/427/40
f 369/428/36 143/165/36 145/167/36 367/426/36
f 328/385/41 366/425/41 138/160/41 132/154/41
f 366/425/4 365/424/4 139/161/4 138/160/4
f 370/429/42 142/164/42 143/165/42 369/428/42
f 371/430/5 133/155/5 142/164/5 370/429/5
f 367/426/73 365/424/73 366/425/73 369/428/73
f 363/422/73 365/424/73 367/426/73 368/427/73
f 369/428/73 366/425/73 328/385/73 370/429/73
f 372/431/73 364/423/73 363/422/73 368/427/73
f 377/438/1 167/198/1 162/190/1 379/444/1
f 373/432/1 374/433/1 405/473/1 403/470/1
f 274/314/73 273/313/73 376/437/73 373/432/73
f 373/432/100 376/437/100 375/436/100 374/433/100
f 374/434/36 375/435/36 154/176/36 153/175/36
f 286/334/1 382/448/1 378/441/1 282/328/1
f 381/447/100 380/445/100 378/440/100 379/442/100
f 380/445/73 285/333/73 282/329/73 378/440/73
f 165/195/36 381/446/36 379/443/36 162/191/36
f 154/176/5 375/435/5 381/446/5 165/195/5
f 375/436/5 376/437/5 380/445/5 381/447/5
f 376/437/5 273/313/5 285/333/5 380/445/5
f 382/448/1 377/438/1 379/444/1 378/441/1
f 377/439/101 382/449/101 388/455/101 386/453/101
f 382/449/76 286/335/76 296/346/76 388/455/76
f 387/454/102 295/345/102 290/340/102 384/451/102
f 172/203/103 385/452/103 383/450/103 168/199/103
f 295/345/79 387/454/79 388/455/79 296/346/79
f 387/454/104 385/452/104 386/453/104 388/455/104
f 171/202/48 386/453/48 385/452/48 172/203/48
f 171/202/49 167/198/49 377/439/49 386/453/49
f 168/199/5 383/450/5 391/458/5 181/212/5
f 383/450/5 384/451/5 393/460/5 391/458/5
f 389/456/105 390/457/105 392/459/105 394/461/105
f 385/452/100 387/454/100 384/451/100 383/450/100
f 187/218/106 178/209/106 390/457/106 396/463/106
f 191/222/103 398/465/103 400/467/103 195/227/103
f 398/465/100 397/464/100 399/466/100 400/467/100
f 391/458/107 393/460/107 394/461/107 392/459/107
f 393/460/108 301/351/108 300/350/108 394/461/108
f 181/212/36 391/458/36 392/459/36 183/214/36
f 299/349/109 389/456/109 394/461/109 300/350/109
f 384/451/5 290/340/5 301/351/5 393/460/5
f 390/457/110 178/209/110 183/214/110 392/459/110
f 390/457/111 389/456/111 395/462/111 396/463/111
f 389/456/112 299/349/112 308/358/112 395/462/112
f 191/222/1 187/218/1 396/463/1 398/465/1
f 397/464/102 312/363/102 315/366/102 399/466/102
f 396/463/1 395/462/1 397/464/1 398/465/1
f 395/462/1 308/358/1 312/363/1 397/464/1
f 399/466/1 315/366/1 55/67/1
f 400/467/1 399/466/1 55/67/1
f 55/67/1 195/227/1 400/467/1
f 209/247/5 193/224/5 310/360/5 329/386/5 411/483/5 410/482/5
f 401/468/36 196/228/36 205/242/36 407/478/36
f 421/495/113 204/241/113 406/477/113
f 340/397/114 417/489/114 404/471/114 324/379/114
f 417/489/115 418/490/115 406/475/115 404/471/115
f 401/468/5 402/469/5 404/472/5 406/476/5
f 374/434/1 153/175/1 202/236/1 405/474/1
f 274/314/1 373/432/1 403/470/1 322/375/1
f 196/228/5 401/468/5 406/476/5 204/240/5
f 402/469/5 316/367/5 324/380/5 404/472/5
f 209/247/5 410/482/5 414/486/5 213/251/5
f 402/469/100 401/468/100 407/478/100 408/479/100
f 316/367/73 402/469/73 408/479/73 325/381/73
f 193/224/116 409/480/116 310/360/116
f 325/381/1 408/479/1 413/485/1 334/391/1
f 407/478/1 205/242/1 212/250/1 412/484/1
f 413/485/100 412/484/100 414/486/100 415/487/100
f 412/484/36 212/250/36 213/251/36 414/486/36
f 334/391/73 413/485/73 415/487/73 337/394/73
f 411/483/5 329/386/5 337/394/5 415/487/5
f 408/479/1 407/478/1 412/484/1 413/485/1
f 410/482/5 411/483/5 415/487/5 414/486/5
f 403/470/115 405/473/115 419/492/115 416/488/115
f 416/488/115 419/492/115 418/490/115 417/489/115
f 322/375/114 403/470/114 416/488/114 341/398/114
f 341/398/114 416/488/114 417/489/114 340/397/114
f 202/236/117 220/258/117 420/494/117
f 419/493/118 420/494/118 421/495/118 418/491/118
f 406/477/113 418/491/113 421/495/113
f 421/495/119 221/259/119 204/241/119
f 419/493/120 405/474/120 420/494/120
f 405/474/121 202/236/121 420/494/121
f 421/495/122 420/494/122 422/496/122 423/497/122
f 420/494/1 220/258/1 227/267/1 422/496/1
f 221/259/5 421/495/5 423/497/5 226/266/5
f 236/276/35 427/501/35 425/499/35 233/273/35
f 424/498/36 230/270/36 233/273/36 425/499/36
f 429/503/34 240/280/34 230/270/34 424/498/34
f 422/496/33 227/267/33 241/281/33 428/502/33
f 428/502/1 241/281/1 240/280/1 429/503/1
f 426/500/73 437/511/73 436/510/73 427/501/73
f 226/266/32 423/497/32 426/500/32 237/277/32
f 237/277/5 426/500/5 427/501/5 236/276/5
f 434/508/73 422/496/73 428/502/73 433/507/73
f 425/499/73 430/504/73 431/505/73 424/498/73
f 427/501/73 436/510/73 430/504/73 425/499/73
f 432/506/73 433/507/73 428/502/73 429/503/73
f 434/508/73 435/509/73 423/497/73 422/496/73
f 423/497/73 435/509/73 437/511/73 426/500/73
f 424/498/73 431/505/73 432/506/73 429/503/73
f 437/511/34 435/509/34 255/295/34 257/297/34
f 436/510/1 437/511/1 257/297/1 256/296/1
f 433/507/5 432/506/5 252/292/5 253/293/5
f 434/508/35 433/507/35 253/293/35 254/294/35
f 430/504/33 436/510/33 256/296/33 250/290/33
f 435/509/36 434/508/36 254/294/36 255/295/36
f 431/505/4 430/504/4 250/290/4 251/291/4
f 432/506/32 431/505/32 251/291/32 252/292/32
f 310/361/99 409/481/99 362/421/99
f 193/225/68 258/298/68 409/481/68
f 439/513/69 262/302/69 260/300/69 438/512/69
f 438/512/5 260/300/5 137/159/5
f 438/512/5 137/159/5 364/423/5
f 442/516/1 372/431/1 146/168/1 267/307/1
f 362/421/73 409/481/73 444/518/73 371/430/73
f 441/515/70 442/516/70 267/307/70 268/308/70
f 443/517/4 441/515/4 268/308/4 266/306/4
f 409/481/71 258/298/71 261/301/71 440/514/71
f 440/514/36 261/301/36 262/302/36 439/513/36
f 444/518/72 443/517/72 266/306/72 265/305/72
f 371/430/5 444/518/5 265/305/5 133/155/5
f 441/515/73 443/517/73 440/514/73 439/513/73
f 438/512/73 442/516/73 441/515/73 439/513/73
f 443/517/73 444/518/73 409/481/73 440/514/73
f 372/431/73 442/516/73 438/512/73 364/423/73
